<mxfile host="app.diagrams.net" modified="2021-11-22T07:19:11.831Z" agent="5.0 (Windows NT 10.0; Win64; x64) AppleWebKit/537.36 (KHTML, like Gecko) Chrome/92.0.4515.159 Safari/537.36" etag="GATdlIbPzjJB-qkRJ_GK" version="15.7.3" type="github" pages="2">
  <diagram id="VI8LrAXMMy9Ib4fKrH2t" name="第 1 页">
    <mxGraphModel dx="502" dy="501" grid="1" gridSize="10" guides="1" tooltips="1" connect="1" arrows="1" fold="1" page="1" pageScale="1" pageWidth="827" pageHeight="1169" math="0" shadow="0">
      <root>
        <mxCell id="0" />
        <mxCell id="1" parent="0" />
        <mxCell id="dDyvRAChXG9USyA-I5EC-9" style="rounded=0;orthogonalLoop=1;jettySize=auto;html=1;exitX=0.5;exitY=1;exitDx=0;exitDy=0;entryX=0.5;entryY=0;entryDx=0;entryDy=0;strokeWidth=2;" edge="1" parent="1" source="dDyvRAChXG9USyA-I5EC-1" target="dDyvRAChXG9USyA-I5EC-2">
          <mxGeometry relative="1" as="geometry" />
        </mxCell>
        <mxCell id="dDyvRAChXG9USyA-I5EC-15" value="7" style="edgeLabel;html=1;align=center;verticalAlign=middle;resizable=0;points=[];fontSize=15;" vertex="1" connectable="0" parent="dDyvRAChXG9USyA-I5EC-9">
          <mxGeometry x="-0.0761" relative="1" as="geometry">
            <mxPoint as="offset" />
          </mxGeometry>
        </mxCell>
        <mxCell id="dDyvRAChXG9USyA-I5EC-10" style="edgeStyle=none;rounded=0;orthogonalLoop=1;jettySize=auto;html=1;exitX=0.5;exitY=1;exitDx=0;exitDy=0;entryX=0.5;entryY=0;entryDx=0;entryDy=0;strokeWidth=2;" edge="1" parent="1" source="dDyvRAChXG9USyA-I5EC-1" target="dDyvRAChXG9USyA-I5EC-3">
          <mxGeometry relative="1" as="geometry" />
        </mxCell>
        <mxCell id="dDyvRAChXG9USyA-I5EC-1" value="" style="ellipse;whiteSpace=wrap;html=1;aspect=fixed;strokeWidth=2;" vertex="1" parent="1">
          <mxGeometry x="183" y="50" width="50" height="50" as="geometry" />
        </mxCell>
        <mxCell id="dDyvRAChXG9USyA-I5EC-2" value="a" style="ellipse;whiteSpace=wrap;html=1;aspect=fixed;strokeWidth=2;fontStyle=0;fontSize=15;" vertex="1" parent="1">
          <mxGeometry x="123" y="130" width="50" height="50" as="geometry" />
        </mxCell>
        <mxCell id="dDyvRAChXG9USyA-I5EC-11" style="edgeStyle=none;rounded=0;orthogonalLoop=1;jettySize=auto;html=1;exitX=0.5;exitY=1;exitDx=0;exitDy=0;entryX=0.5;entryY=0;entryDx=0;entryDy=0;strokeWidth=2;" edge="1" parent="1" source="dDyvRAChXG9USyA-I5EC-3" target="dDyvRAChXG9USyA-I5EC-4">
          <mxGeometry relative="1" as="geometry" />
        </mxCell>
        <mxCell id="dDyvRAChXG9USyA-I5EC-16" value="5" style="edgeLabel;html=1;align=center;verticalAlign=middle;resizable=0;points=[];fontSize=15;" vertex="1" connectable="0" parent="dDyvRAChXG9USyA-I5EC-11">
          <mxGeometry x="-0.0607" relative="1" as="geometry">
            <mxPoint as="offset" />
          </mxGeometry>
        </mxCell>
        <mxCell id="dDyvRAChXG9USyA-I5EC-12" style="edgeStyle=none;rounded=0;orthogonalLoop=1;jettySize=auto;html=1;exitX=0.5;exitY=1;exitDx=0;exitDy=0;entryX=0.5;entryY=0;entryDx=0;entryDy=0;strokeWidth=2;" edge="1" parent="1" source="dDyvRAChXG9USyA-I5EC-3" target="dDyvRAChXG9USyA-I5EC-5">
          <mxGeometry relative="1" as="geometry" />
        </mxCell>
        <mxCell id="dDyvRAChXG9USyA-I5EC-3" value="" style="ellipse;whiteSpace=wrap;html=1;aspect=fixed;strokeWidth=2;" vertex="1" parent="1">
          <mxGeometry x="243" y="130" width="50" height="50" as="geometry" />
        </mxCell>
        <mxCell id="dDyvRAChXG9USyA-I5EC-4" value="b" style="ellipse;whiteSpace=wrap;html=1;aspect=fixed;strokeWidth=2;fontSize=15;" vertex="1" parent="1">
          <mxGeometry x="193" y="210" width="50" height="50" as="geometry" />
        </mxCell>
        <mxCell id="dDyvRAChXG9USyA-I5EC-13" style="edgeStyle=none;rounded=0;orthogonalLoop=1;jettySize=auto;html=1;exitX=0.5;exitY=1;exitDx=0;exitDy=0;entryX=0.5;entryY=0;entryDx=0;entryDy=0;strokeWidth=2;" edge="1" parent="1" source="dDyvRAChXG9USyA-I5EC-5" target="dDyvRAChXG9USyA-I5EC-6">
          <mxGeometry relative="1" as="geometry" />
        </mxCell>
        <mxCell id="dDyvRAChXG9USyA-I5EC-17" value="2" style="edgeLabel;html=1;align=center;verticalAlign=middle;resizable=0;points=[];fontSize=15;" vertex="1" connectable="0" parent="dDyvRAChXG9USyA-I5EC-13">
          <mxGeometry x="-0.0352" relative="1" as="geometry">
            <mxPoint as="offset" />
          </mxGeometry>
        </mxCell>
        <mxCell id="dDyvRAChXG9USyA-I5EC-14" style="edgeStyle=none;rounded=0;orthogonalLoop=1;jettySize=auto;html=1;exitX=0.5;exitY=1;exitDx=0;exitDy=0;entryX=0.5;entryY=0;entryDx=0;entryDy=0;strokeWidth=2;" edge="1" parent="1" source="dDyvRAChXG9USyA-I5EC-5" target="dDyvRAChXG9USyA-I5EC-7">
          <mxGeometry relative="1" as="geometry" />
        </mxCell>
        <mxCell id="dDyvRAChXG9USyA-I5EC-18" value="4" style="edgeLabel;html=1;align=center;verticalAlign=middle;resizable=0;points=[];fontSize=15;" vertex="1" connectable="0" parent="dDyvRAChXG9USyA-I5EC-14">
          <mxGeometry x="-0.0905" y="1" relative="1" as="geometry">
            <mxPoint as="offset" />
          </mxGeometry>
        </mxCell>
        <mxCell id="dDyvRAChXG9USyA-I5EC-5" value="" style="ellipse;whiteSpace=wrap;html=1;aspect=fixed;strokeWidth=2;" vertex="1" parent="1">
          <mxGeometry x="303" y="210" width="50" height="50" as="geometry" />
        </mxCell>
        <mxCell id="dDyvRAChXG9USyA-I5EC-6" value="c" style="ellipse;whiteSpace=wrap;html=1;aspect=fixed;strokeWidth=2;fontSize=15;" vertex="1" parent="1">
          <mxGeometry x="243" y="290" width="50" height="50" as="geometry" />
        </mxCell>
        <mxCell id="dDyvRAChXG9USyA-I5EC-7" value="d" style="ellipse;whiteSpace=wrap;html=1;aspect=fixed;strokeWidth=2;fontSize=15;" vertex="1" parent="1">
          <mxGeometry x="363" y="290" width="50" height="50" as="geometry" />
        </mxCell>
      </root>
    </mxGraphModel>
  </diagram>
  <diagram id="oXo0krziebz0cgfuZapd" name="构建过程">
    <mxGraphModel dx="502" dy="501" grid="1" gridSize="10" guides="1" tooltips="1" connect="1" arrows="1" fold="1" page="1" pageScale="1" pageWidth="827" pageHeight="1169" math="0" shadow="0">
      <root>
        <mxCell id="2zwLImXL_wVJFz3TGtHV-0" />
        <mxCell id="2zwLImXL_wVJFz3TGtHV-1" parent="2zwLImXL_wVJFz3TGtHV-0" />
      </root>
    </mxGraphModel>
  </diagram>
</mxfile>
